<svg width="24" height="24" viewBox="0 0 24 24" fill="none" xmlns="http://www.w3.org/2000/svg">
<path d="M19.8193 2H17.9502V4C17.9502 4.4 17.6386 4.66667 17.3271 4.66667C17.0156 4.66667 16.7041 4.4 16.7041 4V2H6.7352V4C6.7352 4.4 6.42368 4.66667 6.11215 4.66667C5.80062 4.66667 5.4891 4.4 5.4891 4V2H3.61994C2.68536 2 2 2.86667 2 4V6.4H21.9377V4C21.9377 2.86667 20.8162 2 19.8193 2ZM2 7.8V20C2 21.2 2.68536 22 3.68224 22H19.8816C20.8785 22 22 21.1333 22 20V7.8H2ZM7.54517 19H6.04984C5.80062 19 5.5514 18.8 5.5514 18.4667V16.8C5.5514 16.5333 5.73832 16.2667 6.04984 16.2667H7.60748C7.8567 16.2667 8.10592 16.4667 8.10592 16.8V18.4667C8.04361 18.8 7.8567 19 7.54517 19ZM7.54517 13H6.04984C5.80062 13 5.5514 12.8 5.5514 12.4667V10.8C5.5514 10.5333 5.73832 10.2667 6.04984 10.2667H7.60748C7.8567 10.2667 8.10592 10.4667 8.10592 10.8V12.4667C8.04361 12.8 7.8567 13 7.54517 13ZM12.5296 19H10.972C10.7227 19 10.4735 18.8 10.4735 18.4667V16.8C10.4735 16.5333 10.6604 16.2667 10.972 16.2667H12.5296C12.7788 16.2667 13.028 16.4667 13.028 16.8V18.4667C13.028 18.8 12.8411 19 12.5296 19ZM12.5296 13H10.972C10.7227 13 10.4735 12.8 10.4735 12.4667V10.8C10.4735 10.5333 10.6604 10.2667 10.972 10.2667H12.5296C12.7788 10.2667 13.028 10.4667 13.028 10.8V12.4667C13.028 12.8 12.8411 13 12.5296 13ZM17.514 19H15.9564C15.7072 19 15.4579 18.8 15.4579 18.4667V16.8C15.4579 16.5333 15.6449 16.2667 15.9564 16.2667H17.514C17.7632 16.2667 18.0125 16.4667 18.0125 16.8V18.4667C18.0125 18.8 17.8255 19 17.514 19ZM17.514 13H15.9564C15.7072 13 15.4579 12.8 15.4579 12.4667V10.8C15.4579 10.5333 15.6449 10.2667 15.9564 10.2667H17.514C17.7632 10.2667 18.0125 10.4667 18.0125 10.8V12.4667C18.0125 12.8 17.8255 13 17.514 13Z" fill="#191D21"/>
</svg>
