<svg width="24" height="24" viewBox="0 0 24 24" fill="none" xmlns="http://www.w3.org/2000/svg">
<path d="M21.9441 12.2734C21.8906 12.4039 21.7995 12.5155 21.6826 12.5943C21.5656 12.6731 21.428 12.7155 21.2869 12.7162H19.1438V19.8576C19.1438 20.4258 18.918 20.9707 18.5161 21.3725C18.1142 21.7743 17.569 22 17.0006 22H14.1431C13.9537 22 13.772 21.9248 13.638 21.7908C13.504 21.6569 13.4288 21.4753 13.4288 21.2859V17.001C13.4288 16.8116 13.3535 16.63 13.2195 16.4961C13.0855 16.3621 12.9038 16.2869 12.7144 16.2869H11.2856C11.0962 16.2869 10.9145 16.3621 10.7805 16.4961C10.6465 16.63 10.5712 16.8116 10.5712 17.001V21.2859C10.5712 21.4753 10.496 21.6569 10.362 21.7908C10.228 21.9248 10.0463 22 9.85687 22H6.99935C6.43096 22 5.88584 21.7743 5.48393 21.3725C5.08201 20.9707 4.85622 20.4258 4.85622 19.8576V12.7162H2.71308C2.57205 12.7155 2.43437 12.6731 2.31742 12.5943C2.20046 12.5155 2.10945 12.4039 2.05585 12.2734C2.00115 12.1434 1.9862 12.0001 2.0129 11.8615C2.0396 11.723 2.10675 11.5955 2.20587 11.495L11.4928 2.21125C11.5592 2.14431 11.6382 2.09119 11.7253 2.05493C11.8123 2.01867 11.9057 2.00001 12 2.00001C12.0943 2.00001 12.1877 2.01867 12.2747 2.05493C12.3618 2.09119 12.4408 2.14431 12.5072 2.21125L21.7941 11.495C21.8933 11.5955 21.9604 11.723 21.9871 11.8615C22.0138 12.0001 21.9989 12.1434 21.9441 12.2734Z" fill="#191D21"/>
</svg>
