<svg width="36" height="36" viewBox="0 0 36 36" fill="none" xmlns="http://www.w3.org/2000/svg">
<path d="M31.5 24H10.5C10.1022 24 9.72064 23.842 9.43934 23.5607C9.15804 23.2794 9 22.8978 9 22.5C9 22.1022 9.15804 21.7206 9.43934 21.4393C9.72064 21.158 10.1022 21 10.5 21H26.16C27.163 21.0001 28.1372 20.665 28.9281 20.0481C29.7189 19.4312 30.2809 18.5678 30.525 17.595L33 7.86C33.0562 7.63861 33.0611 7.40732 33.0143 7.18376C32.9675 6.9602 32.8702 6.75028 32.73 6.57C32.5841 6.3851 32.3968 6.23715 32.1831 6.13812C31.9694 6.03909 31.7354 5.99178 31.5 6H10.14C9.83053 5.12468 9.25789 4.3665 8.5006 3.82941C7.7433 3.29232 6.83842 3.00261 5.91 3H4.5C4.10218 3 3.72064 3.15804 3.43934 3.43934C3.15804 3.72064 3 4.10218 3 4.5C3 4.89782 3.15804 5.27936 3.43934 5.56066C3.72064 5.84196 4.10218 6 4.5 6H5.91C6.25265 5.99002 6.58839 6.0977 6.86131 6.30512C7.13423 6.51254 7.32787 6.80719 7.41 7.14L7.5 7.86L10.095 18C8.90153 18.0537 7.77827 18.5793 6.97233 19.4612C6.16639 20.3431 5.74379 21.509 5.7975 22.7025C5.85121 23.896 6.37682 25.0192 7.25871 25.8252C8.1406 26.6311 9.30653 27.0537 10.5 27H10.77C10.5233 27.6797 10.444 28.4088 10.5389 29.1257C10.6338 29.8425 10.9 30.5259 11.315 31.118C11.73 31.7102 12.2816 32.1936 12.923 32.5273C13.5645 32.861 14.2769 33.0353 15 33.0353C15.7231 33.0353 16.4355 32.861 17.077 32.5273C17.7184 32.1936 18.27 31.7102 18.685 31.118C19.1 30.5259 19.3662 29.8425 19.4611 29.1257C19.556 28.4088 19.4767 27.6797 19.23 27H22.77C22.5233 27.6797 22.444 28.4088 22.5389 29.1257C22.6338 29.8425 22.9 30.5259 23.315 31.118C23.73 31.7102 24.2816 32.1936 24.923 32.5273C25.5645 32.861 26.2769 33.0353 27 33.0353C27.7231 33.0353 28.4355 32.861 29.077 32.5273C29.7184 32.1936 30.27 31.7102 30.685 31.118C31.1 30.5259 31.3662 29.8425 31.4611 29.1257C31.556 28.4088 31.4767 27.6797 31.23 27H31.5C31.8978 27 32.2794 26.842 32.5607 26.5607C32.842 26.2794 33 25.8978 33 25.5C33 25.1022 32.842 24.7206 32.5607 24.4393C32.2794 24.158 31.8978 24 31.5 24ZM29.58 9L27.615 16.86C27.5329 17.1928 27.3392 17.4875 27.0663 17.6949C26.7934 17.9023 26.4577 18.01 26.115 18H13.17L10.92 9H29.58ZM15 30C14.7033 30 14.4133 29.912 14.1666 29.7472C13.92 29.5824 13.7277 29.3481 13.6142 29.074C13.5006 28.7999 13.4709 28.4983 13.5288 28.2074C13.5867 27.9164 13.7296 27.6491 13.9393 27.4393C14.1491 27.2296 14.4164 27.0867 14.7074 27.0288C14.9983 26.9709 15.2999 27.0006 15.574 27.1142C15.8481 27.2277 16.0824 27.42 16.2472 27.6666C16.412 27.9133 16.5 28.2033 16.5 28.5C16.5 28.8978 16.342 29.2794 16.0607 29.5607C15.7794 29.842 15.3978 30 15 30ZM27 30C26.7033 30 26.4133 29.912 26.1666 29.7472C25.92 29.5824 25.7277 29.3481 25.6142 29.074C25.5006 28.7999 25.4709 28.4983 25.5288 28.2074C25.5867 27.9164 25.7296 27.6491 25.9393 27.4393C26.1491 27.2296 26.4164 27.0867 26.7074 27.0288C26.9983 26.9709 27.2999 27.0006 27.574 27.1142C27.8481 27.2277 28.0824 27.42 28.2472 27.6666C28.412 27.9133 28.5 28.2033 28.5 28.5C28.5 28.8978 28.342 29.2794 28.0607 29.5607C27.7794 29.842 27.3978 30 27 30Z" fill="black"/>
</svg>
