<svg width="36" height="36" viewBox="0 0 36 36" fill="none" xmlns="http://www.w3.org/2000/svg">
<path d="M18 3C15.0907 3.00553 12.2458 3.85697 9.81184 5.45061C7.37786 7.04425 5.45984 9.31131 4.29141 11.9757C3.12298 14.64 2.75456 17.5866 3.23104 20.4566C3.70751 23.3266 5.00831 25.9961 6.975 28.14C8.37963 29.6626 10.0844 30.8777 11.9819 31.7088C13.8794 32.5399 15.9285 32.969 18 32.969C20.0715 32.969 22.1206 32.5399 24.0181 31.7088C25.9156 30.8777 27.6204 29.6626 29.025 28.14C30.9917 25.9961 32.2925 23.3266 32.769 20.4566C33.2454 17.5866 32.877 14.64 31.7086 11.9757C30.5402 9.31131 28.6221 7.04425 26.1882 5.45061C23.7542 3.85697 20.9093 3.00553 18 3ZM18 30C14.8927 29.9953 11.9084 28.7854 9.675 26.625C10.3531 24.9743 11.5065 23.5624 12.9889 22.5688C14.4712 21.5752 16.2155 21.0447 18 21.0447C19.7845 21.0447 21.5288 21.5752 23.0111 22.5688C24.4934 23.5624 25.6469 24.9743 26.325 26.625C24.0916 28.7854 21.1073 29.9953 18 30ZM15 15C15 14.4067 15.1759 13.8266 15.5056 13.3333C15.8352 12.8399 16.3038 12.4554 16.8519 12.2284C17.4001 12.0013 18.0033 11.9419 18.5853 12.0576C19.1672 12.1734 19.7018 12.4591 20.1213 12.8787C20.5409 13.2982 20.8266 13.8328 20.9424 14.4147C21.0581 14.9967 20.9987 15.5999 20.7716 16.1481C20.5446 16.6962 20.1601 17.1648 19.6667 17.4944C19.1734 17.8241 18.5933 18 18 18C17.2043 18 16.4413 17.6839 15.8787 17.1213C15.3161 16.5587 15 15.7957 15 15ZM28.365 24C27.0248 21.7076 24.9621 19.9245 22.5 18.93C23.2637 18.064 23.7614 16.996 23.9332 15.8542C24.105 14.7123 23.9437 13.5452 23.4686 12.4927C22.9935 11.4403 22.2249 10.5473 21.2549 9.92095C20.2848 9.29456 19.1547 8.96137 18 8.96137C16.8453 8.96137 15.7152 9.29456 14.7451 9.92095C13.7751 10.5473 13.0065 11.4403 12.5314 12.4927C12.0563 13.5452 11.895 14.7123 12.0668 15.8542C12.2386 16.996 12.7362 18.064 13.5 18.93C11.0379 19.9245 8.9752 21.7076 7.635 24C6.56691 22.1807 6.00258 20.1097 6 18C6 14.8174 7.26428 11.7652 9.51472 9.51472C11.7652 7.26428 14.8174 6 18 6C21.1826 6 24.2348 7.26428 26.4853 9.51472C28.7357 11.7652 30 14.8174 30 18C29.9974 20.1097 29.4331 22.1807 28.365 24Z" fill="black"/>
</svg>
