<svg width="36" height="36" viewBox="0 0 36 36" fill="none" xmlns="http://www.w3.org/2000/svg">
<path d="M31.605 25.245L28.5 22.065C27.8321 21.4301 26.9896 21.0094 26.0808 20.8571C25.172 20.7047 24.2384 20.8276 23.4 21.21L22.05 19.86C23.6408 17.7343 24.3674 15.085 24.0833 12.4452C23.7993 9.80546 22.5258 7.37131 20.5191 5.63277C18.5125 3.89424 15.9218 2.98041 13.2685 3.07525C10.6152 3.17009 8.09632 4.26656 6.21895 6.14393C4.34159 8.0213 3.24512 10.5402 3.15028 13.1935C3.05544 15.8468 3.96926 18.4375 5.7078 20.4441C7.44634 22.4507 9.88049 23.7242 12.5203 24.0083C15.16 24.2923 17.8094 23.5658 19.935 21.975L21.27 23.31C20.8426 24.1494 20.6895 25.1018 20.8321 26.0329C20.9747 26.9641 21.406 27.8269 22.065 28.5L25.245 31.68C26.0888 32.5227 27.2325 32.996 28.425 32.996C29.6175 32.996 30.7612 32.5227 31.605 31.68C32.0336 31.2609 32.3742 30.7604 32.6067 30.2079C32.8392 29.6553 32.9589 29.0619 32.9589 28.4625C32.9589 27.863 32.8392 27.2696 32.6067 26.7171C32.3742 26.1646 32.0336 25.6641 31.605 25.245ZM18.885 18.885C17.8354 19.932 16.499 20.6444 15.0446 20.9322C13.5903 21.2201 12.0832 21.0705 10.7139 20.5023C9.34456 19.934 8.17434 18.9727 7.35107 17.7398C6.5278 16.5068 6.08841 15.0575 6.08841 13.575C6.08841 12.0924 6.5278 10.6431 7.35107 9.41017C8.17434 8.17721 9.34456 7.21591 10.7139 6.64769C12.0832 6.07948 13.5903 5.92985 15.0446 6.2177C16.499 6.50555 17.8354 7.21798 18.885 8.26497C19.5835 8.96166 20.1376 9.78929 20.5157 10.7005C20.8938 11.6116 21.0884 12.5885 21.0884 13.575C21.0884 14.5615 20.8938 15.5383 20.5157 16.4495C20.1376 17.3607 19.5835 18.1883 18.885 18.885ZM29.49 29.49C29.3506 29.6306 29.1847 29.7422 29.0019 29.8183C28.8191 29.8945 28.623 29.9337 28.425 29.9337C28.227 29.9337 28.0309 29.8945 27.8481 29.8183C27.6653 29.7422 27.4994 29.6306 27.36 29.49L24.18 26.31C24.0394 26.1705 23.9278 26.0046 23.8517 25.8218C23.7755 25.639 23.7363 25.443 23.7363 25.245C23.7363 25.047 23.7755 24.8509 23.8517 24.6681C23.9278 24.4853 24.0394 24.3194 24.18 24.18C24.3194 24.0394 24.4853 23.9278 24.6681 23.8516C24.8509 23.7755 25.047 23.7363 25.245 23.7363C25.443 23.7363 25.6391 23.7755 25.8219 23.8516C26.0047 23.9278 26.1706 24.0394 26.31 24.18L29.49 27.36C29.6306 27.4994 29.7422 27.6653 29.8183 27.8481C29.8945 28.0309 29.9337 28.227 29.9337 28.425C29.9337 28.623 29.8945 28.819 29.8183 29.0018C29.7422 29.1846 29.6306 29.3505 29.49 29.49Z" fill="black"/>
</svg>
